<mxfile host="app.diagrams.net" modified="2024-05-08T14:30:14.613Z" agent="Mozilla/5.0 (Windows NT 10.0; Win64; x64) AppleWebKit/537.36 (KHTML, like Gecko) Chrome/124.0.0.0 Safari/537.36" etag="TRUVJMilav07gxp-XvB6" version="24.3.1" type="github">
  <diagram name="Page-1" id="MhAH3LTav90tU_m8MzAq">
    <mxGraphModel dx="1300" dy="700" grid="1" gridSize="10" guides="1" tooltips="1" connect="1" arrows="1" fold="1" page="1" pageScale="1" pageWidth="850" pageHeight="1100" math="0" shadow="0">
      <root>
        <mxCell id="0" />
        <mxCell id="1" parent="0" />
        <mxCell id="6EDm5jeRvWFS_q6y8QjR-1" value="" style="rounded=0;whiteSpace=wrap;html=1;" vertex="1" parent="1">
          <mxGeometry x="290" y="30" width="180" height="110" as="geometry" />
        </mxCell>
        <mxCell id="6EDm5jeRvWFS_q6y8QjR-2" value="product" style="text;html=1;align=center;verticalAlign=middle;whiteSpace=wrap;rounded=0;" vertex="1" parent="1">
          <mxGeometry x="350" y="30" width="60" height="30" as="geometry" />
        </mxCell>
        <mxCell id="6EDm5jeRvWFS_q6y8QjR-3" value="add to basket" style="rounded=1;whiteSpace=wrap;html=1;" vertex="1" parent="1">
          <mxGeometry x="320" y="70" width="120" height="60" as="geometry" />
        </mxCell>
        <mxCell id="6EDm5jeRvWFS_q6y8QjR-13" style="edgeStyle=orthogonalEdgeStyle;rounded=0;orthogonalLoop=1;jettySize=auto;html=1;exitX=0.55;exitY=0.95;exitDx=0;exitDy=0;exitPerimeter=0;entryX=0.5;entryY=0;entryDx=0;entryDy=0;" edge="1" parent="1" source="6EDm5jeRvWFS_q6y8QjR-7" target="6EDm5jeRvWFS_q6y8QjR-12">
          <mxGeometry relative="1" as="geometry" />
        </mxCell>
        <mxCell id="6EDm5jeRvWFS_q6y8QjR-7" value="&lt;div style=&quot;text-align: left;&quot;&gt;&amp;nbsp;prodcutId,&lt;br&gt;&lt;/div&gt;&lt;div style=&quot;text-align: left;&quot;&gt;&amp;nbsp; &amp;nbsp; userId&lt;/div&gt;" style="ellipse;shape=cloud;whiteSpace=wrap;html=1;" vertex="1" parent="1">
          <mxGeometry x="320" y="190" width="120" height="80" as="geometry" />
        </mxCell>
        <mxCell id="6EDm5jeRvWFS_q6y8QjR-9" value="" style="endArrow=classic;html=1;rounded=0;exitX=0.5;exitY=1;exitDx=0;exitDy=0;entryX=0.511;entryY=0.088;entryDx=0;entryDy=0;entryPerimeter=0;" edge="1" parent="1" source="6EDm5jeRvWFS_q6y8QjR-1" target="6EDm5jeRvWFS_q6y8QjR-7">
          <mxGeometry width="50" height="50" relative="1" as="geometry">
            <mxPoint x="400" y="280" as="sourcePoint" />
            <mxPoint x="450" y="230" as="targetPoint" />
          </mxGeometry>
        </mxCell>
        <mxCell id="6EDm5jeRvWFS_q6y8QjR-12" value="create basket product" style="rounded=0;whiteSpace=wrap;html=1;" vertex="1" parent="1">
          <mxGeometry x="320" y="300" width="130" height="60" as="geometry" />
        </mxCell>
        <mxCell id="6EDm5jeRvWFS_q6y8QjR-15" value="" style="endArrow=none;dashed=1;html=1;dashPattern=1 3;strokeWidth=2;rounded=0;exitX=1;exitY=1;exitDx=0;exitDy=0;" edge="1" parent="1" source="6EDm5jeRvWFS_q6y8QjR-12">
          <mxGeometry width="50" height="50" relative="1" as="geometry">
            <mxPoint x="400" y="360" as="sourcePoint" />
            <mxPoint x="660" y="360" as="targetPoint" />
          </mxGeometry>
        </mxCell>
        <mxCell id="6EDm5jeRvWFS_q6y8QjR-16" value="post" style="edgeLabel;html=1;align=center;verticalAlign=middle;resizable=0;points=[];" vertex="1" connectable="0" parent="6EDm5jeRvWFS_q6y8QjR-15">
          <mxGeometry x="-0.0408" y="1" relative="1" as="geometry">
            <mxPoint as="offset" />
          </mxGeometry>
        </mxCell>
        <mxCell id="6EDm5jeRvWFS_q6y8QjR-23" value="busketProducts" style="shape=cylinder3;whiteSpace=wrap;html=1;boundedLbl=1;backgroundOutline=1;size=15;" vertex="1" parent="1">
          <mxGeometry x="630" y="300" width="180" height="130" as="geometry" />
        </mxCell>
        <mxCell id="6EDm5jeRvWFS_q6y8QjR-24" value="" style="endArrow=none;dashed=1;html=1;dashPattern=1 3;strokeWidth=2;rounded=0;entryX=0;entryY=1;entryDx=0;entryDy=-15;entryPerimeter=0;" edge="1" parent="1" target="6EDm5jeRvWFS_q6y8QjR-23">
          <mxGeometry width="50" height="50" relative="1" as="geometry">
            <mxPoint x="390" y="470" as="sourcePoint" />
            <mxPoint x="280" y="270" as="targetPoint" />
          </mxGeometry>
        </mxCell>
        <mxCell id="6EDm5jeRvWFS_q6y8QjR-25" value="get where userID" style="edgeLabel;html=1;align=center;verticalAlign=middle;resizable=0;points=[];" vertex="1" connectable="0" parent="6EDm5jeRvWFS_q6y8QjR-24">
          <mxGeometry x="0.0918" y="3" relative="1" as="geometry">
            <mxPoint as="offset" />
          </mxGeometry>
        </mxCell>
        <mxCell id="6EDm5jeRvWFS_q6y8QjR-26" value="basketProducts" style="ellipse;shape=cloud;whiteSpace=wrap;html=1;" vertex="1" parent="1">
          <mxGeometry x="290" y="430" width="150" height="80" as="geometry" />
        </mxCell>
        <mxCell id="6EDm5jeRvWFS_q6y8QjR-27" value="" style="swimlane;startSize=0;" vertex="1" parent="1">
          <mxGeometry x="30" y="510" width="200" height="80" as="geometry" />
        </mxCell>
        <mxCell id="6EDm5jeRvWFS_q6y8QjR-28" value="basketProducts.map(bp =&amp;gt; {&lt;br&gt;&lt;div&gt;&amp;nbsp; return bp.productId&lt;br&gt;}&lt;/div&gt;" style="text;html=1;align=left;verticalAlign=middle;resizable=0;points=[];autosize=1;strokeColor=none;fillColor=none;" vertex="1" parent="6EDm5jeRvWFS_q6y8QjR-27">
          <mxGeometry x="15" y="10" width="170" height="60" as="geometry" />
        </mxCell>
        <mxCell id="6EDm5jeRvWFS_q6y8QjR-30" value="" style="endArrow=none;dashed=1;html=1;dashPattern=1 3;strokeWidth=2;rounded=0;entryX=0.13;entryY=0.77;entryDx=0;entryDy=0;entryPerimeter=0;exitX=1;exitY=0;exitDx=0;exitDy=0;" edge="1" parent="1" source="6EDm5jeRvWFS_q6y8QjR-27" target="6EDm5jeRvWFS_q6y8QjR-26">
          <mxGeometry width="50" height="50" relative="1" as="geometry">
            <mxPoint x="500" y="560" as="sourcePoint" />
            <mxPoint x="550" y="510" as="targetPoint" />
          </mxGeometry>
        </mxCell>
        <mxCell id="6EDm5jeRvWFS_q6y8QjR-31" value="" style="endArrow=classic;html=1;rounded=0;exitX=0.454;exitY=1.052;exitDx=0;exitDy=0;exitPerimeter=0;entryX=0;entryY=0;entryDx=0;entryDy=40;entryPerimeter=0;" edge="1" parent="1" source="6EDm5jeRvWFS_q6y8QjR-27" target="6EDm5jeRvWFS_q6y8QjR-32">
          <mxGeometry width="50" height="50" relative="1" as="geometry">
            <mxPoint x="500" y="560" as="sourcePoint" />
            <mxPoint x="121" y="660" as="targetPoint" />
          </mxGeometry>
        </mxCell>
        <mxCell id="6EDm5jeRvWFS_q6y8QjR-35" value="get where product ids" style="edgeLabel;html=1;align=center;verticalAlign=middle;resizable=0;points=[];" vertex="1" connectable="0" parent="6EDm5jeRvWFS_q6y8QjR-31">
          <mxGeometry x="-0.1139" relative="1" as="geometry">
            <mxPoint as="offset" />
          </mxGeometry>
        </mxCell>
        <mxCell id="6EDm5jeRvWFS_q6y8QjR-32" value="products" style="shape=cylinder3;whiteSpace=wrap;html=1;boundedLbl=1;backgroundOutline=1;size=15;" vertex="1" parent="1">
          <mxGeometry x="620" y="640" width="180" height="130" as="geometry" />
        </mxCell>
        <mxCell id="6EDm5jeRvWFS_q6y8QjR-36" value="" style="shape=flexArrow;endArrow=classic;html=1;rounded=0;exitX=0;exitY=1;exitDx=0;exitDy=-15;exitPerimeter=0;" edge="1" parent="1" source="6EDm5jeRvWFS_q6y8QjR-32">
          <mxGeometry width="50" height="50" relative="1" as="geometry">
            <mxPoint x="500" y="690" as="sourcePoint" />
            <mxPoint x="250" y="755" as="targetPoint" />
          </mxGeometry>
        </mxCell>
        <mxCell id="6EDm5jeRvWFS_q6y8QjR-37" value="products in basket" style="swimlane;fontStyle=0;childLayout=stackLayout;horizontal=1;startSize=30;horizontalStack=0;resizeParent=1;resizeParentMax=0;resizeLast=0;collapsible=1;marginBottom=0;whiteSpace=wrap;html=1;" vertex="1" parent="1">
          <mxGeometry x="110" y="710" width="140" height="120" as="geometry" />
        </mxCell>
        <mxCell id="6EDm5jeRvWFS_q6y8QjR-38" value="p1" style="text;strokeColor=none;fillColor=none;align=left;verticalAlign=middle;spacingLeft=4;spacingRight=4;overflow=hidden;points=[[0,0.5],[1,0.5]];portConstraint=eastwest;rotatable=0;whiteSpace=wrap;html=1;" vertex="1" parent="6EDm5jeRvWFS_q6y8QjR-37">
          <mxGeometry y="30" width="140" height="30" as="geometry" />
        </mxCell>
        <mxCell id="6EDm5jeRvWFS_q6y8QjR-39" value="p2" style="text;strokeColor=none;fillColor=none;align=left;verticalAlign=middle;spacingLeft=4;spacingRight=4;overflow=hidden;points=[[0,0.5],[1,0.5]];portConstraint=eastwest;rotatable=0;whiteSpace=wrap;html=1;" vertex="1" parent="6EDm5jeRvWFS_q6y8QjR-37">
          <mxGeometry y="60" width="140" height="30" as="geometry" />
        </mxCell>
        <mxCell id="6EDm5jeRvWFS_q6y8QjR-40" value="p3" style="text;strokeColor=none;fillColor=none;align=left;verticalAlign=middle;spacingLeft=4;spacingRight=4;overflow=hidden;points=[[0,0.5],[1,0.5]];portConstraint=eastwest;rotatable=0;whiteSpace=wrap;html=1;" vertex="1" parent="6EDm5jeRvWFS_q6y8QjR-37">
          <mxGeometry y="90" width="140" height="30" as="geometry" />
        </mxCell>
      </root>
    </mxGraphModel>
  </diagram>
</mxfile>
